<svg id="Layer_1" data-name="Layer 1" xmlns="http://www.w3.org/2000/svg" viewBox="0 0 363.01 73.03"><defs><style>.cls-1,.cls-2,.cls-3{fill:#172134;stroke:#172134;stroke-miterlimit:10;}.cls-1{stroke-width:1.19px;}.cls-2{stroke-width:0.31px;}.cls-3{stroke-width:1.78px;}</style></defs><path class="cls-1" d="M54.29,12.89a1.06,1.06,0,0,0-1.47.18l0,0a1.07,1.07,0,0,0,.2,1.49A30.83,30.83,0,0,1,35.62,70.14V64.47a17.7,17.7,0,0,0,3.55.39,17,17,0,0,0,11.93-5l1.16-1.13a17,17,0,0,0,4.38-16.43,1,1,0,0,0-.74-.75,16.75,16.75,0,0,0-5.55-.53,10.55,10.55,0,0,0,.78-.72l1.16-1.13a16.92,16.92,0,0,0,4.35-16.31,1,1,0,0,0-.74-.74,17,17,0,0,0-13.81,2.29,16.89,16.89,0,0,0,1.43-6.8V16.05A16.91,16.91,0,0,0,35.09,1.51a1,1,0,0,0-1.08,0,16.9,16.9,0,0,0-8.43,14.63v1.61A16.84,16.84,0,0,0,27,24.46,16.91,16.91,0,0,0,13.2,22.17a1,1,0,0,0-.74.74,17,17,0,0,0,4.35,16.46L18,40.5q.38.38.78.72a16.49,16.49,0,0,0-5.55.53,1,1,0,0,0-.74.75,17,17,0,0,0,4.35,16.34L18,60a17,17,0,0,0,11.93,5,17.7,17.7,0,0,0,3.55-.39v5.66A30.82,30.82,0,0,1,16.1,14.59a1.07,1.07,0,0,0,.2-1.49,1,1,0,0,0-1.45-.23l0,0a33.12,33.12,0,1,0,39.48,0Zm.44,30.71a14.89,14.89,0,0,1-4,13.66l-1.13,1.13a14.9,14.9,0,0,1-13.66,4A14.91,14.91,0,0,1,40,48.7l1.13-1.13A14.91,14.91,0,0,1,54.73,43.6Zm0-19.47a14.9,14.9,0,0,1-4,13.69L49.64,39a14.92,14.92,0,0,1-13.66,4,14.92,14.92,0,0,1,4-13.66l1.13-1.13A14.91,14.91,0,0,1,54.73,24.13Zm-27-8A14.94,14.94,0,0,1,34.55,3.59a14.91,14.91,0,0,1,6.86,12.49v1.61a14.92,14.92,0,0,1-6.86,12.47,14.92,14.92,0,0,1-6.86-12.47Zm-13.32,8a14.91,14.91,0,0,1,13.65,4l1.13,1.13a14.92,14.92,0,0,1,4,13.66,14.9,14.9,0,0,1-13.65-4l-1.14-1.13A14.92,14.92,0,0,1,14.37,24.13ZM33.12,62.38a14.88,14.88,0,0,1-13.65-4l-1.14-1.13a14.92,14.92,0,0,1-4-13.66,14.91,14.91,0,0,1,13.65,4l1.13,1.13A14.91,14.91,0,0,1,33.12,62.38Z"/><path class="cls-2" d="M131.91,57.27V68.76l-1-1.38a6.4,6.4,0,0,0-5.73-4.18L123.52,61a23,23,0,0,1,3-1.79,28.53,28.53,0,0,1,3.86-1.55v-.38h-7.17l-1.55-1.48h11.83L135,57.27Zm-1.56,2.52a19.92,19.92,0,0,0-3.65,1.79,9.15,9.15,0,0,1,3.65,2.83Z"/><path class="cls-2" d="M140.08,59.92v.35c0,.83-.72,1.66-2.17,2.41a3.17,3.17,0,0,1-1.55.45,2.13,2.13,0,0,1-1.35-.45,1.32,1.32,0,0,1-.62-1.13V57.27h-1.21l-1.48-1.48h12l1.55,1.48h-9.11l.21.38a2.93,2.93,0,0,0,2.07.79h1.45a3,3,0,0,1,2.24,1,3.16,3.16,0,0,1,.93,2.24,3.8,3.8,0,0,1-2.38,3.21l-.82.35,1.51.79a13,13,0,0,1,3.14,2.73l.28,1.55a17.39,17.39,0,0,0-3.24-2.56,15.66,15.66,0,0,0-3.8-1.41,12.89,12.89,0,0,0-1.86-.31l-1.45-2.52a7.82,7.82,0,0,0,2.24.45h1.52a3.61,3.61,0,0,0,1.55-.55,4.4,4.4,0,0,0,1.24-1.07,2.23,2.23,0,0,0,.45-1.24C141.43,60.2,141,59.92,140.08,59.92Zm-3.45-.48a7.94,7.94,0,0,1-.72-.58v2.51c0,.24,0,.38.2.35a2.72,2.72,0,0,0,.94-.45A1.91,1.91,0,0,0,138,60Z"/><path class="cls-2" d="M152,57.27V68.38l-.86-.76-1.21-2.07a5.47,5.47,0,0,0-1.83-1.62,6.87,6.87,0,0,0-2.83-.83l-1.69-2.17a25.93,25.93,0,0,1,6.9-3.45v-.35h-6.9l-1.62-1.48h11.35l1.62,1.48Zm-4.56,9.93a1.43,1.43,0,0,1-1-.41,1.27,1.27,0,0,1-.41-.93,1.19,1.19,0,0,1,.38-.9,1.39,1.39,0,0,1,.93-.38,1.44,1.44,0,0,1,.89.31,1.28,1.28,0,0,1,.52.73,1.27,1.27,0,0,1-1.28,1.58Zm3-7.55a14.61,14.61,0,0,0-3.69,1.83,8.16,8.16,0,0,1,3.69,2.93Z"/><path class="cls-2" d="M166.85,60.17a1.93,1.93,0,0,1,.72.58,4.32,4.32,0,0,1,1,3.25,3.78,3.78,0,0,1-1.21,1.69,3.55,3.55,0,0,1-2,.62A4.49,4.49,0,0,1,162,64.44a6.87,6.87,0,0,1-1.21-2.34,14.66,14.66,0,0,1-.44-4.52,4.68,4.68,0,0,1,1.06.62,7.44,7.44,0,0,0,0,2,9.85,9.85,0,0,0,.52,1.59,4.47,4.47,0,0,0,1.28,1.58,2.65,2.65,0,0,0,1.9.76,7.11,7.11,0,0,0,1.44-.31c.63-.24.94-.55.94-1a1.7,1.7,0,0,0,0-.45.34.34,0,0,0-.28-.21H167a5,5,0,0,1-1.86.48,3,3,0,0,1-1.24-.27,3.47,3.47,0,0,1-1.52-2,2.66,2.66,0,0,1,0-.69,3.42,3.42,0,0,1,1.07-2.21l.24-.28h-4.31l-1.59-1.48H173l1.56,1.48H167l-.62.31h0a2.26,2.26,0,0,0,1,.63,4.21,4.21,0,0,0,1.45.2,11.3,11.3,0,0,0,2.14-.51l2,1.86a6.83,6.83,0,0,0-1.28,1.65,4.4,4.4,0,0,0-.59,1.9c0,.41,0,.83,0,1.24a7.74,7.74,0,0,0,.93,3.11.57.57,0,0,1-.34.2,2.06,2.06,0,0,1-.69-.17c-.38,0-.55,0-.62-.27l-.52-2.18a8.7,8.7,0,0,1-.34-2.21,8,8,0,0,1,.62-2.93,10.3,10.3,0,0,1-2.28-.34,3.88,3.88,0,0,1-2.17-.76l-.62-.73c-.24,0-.56.35-.93,1a2.89,2.89,0,0,0-.59,1.28c0,.34.21.51.62.51a6.39,6.39,0,0,0,1.79-.69l.62-.24a.43.43,0,0,1,.35,0Z"/><path class="cls-2" d="M170.4,69.31l-.93.76a2.2,2.2,0,0,1-1.17.38,2.88,2.88,0,0,1-1.49-.35A1.51,1.51,0,0,1,166,69a1.63,1.63,0,0,1,.55-1.52,2.35,2.35,0,0,1,1.66-.58,3.21,3.21,0,0,1,1.59.48V65.86a.42.42,0,0,1,.27,0c.28,0,.59.24.83.72a2.46,2.46,0,0,1,.41,1.07V68a2.8,2.8,0,0,0,0,.41,5.16,5.16,0,0,1,1,.86,4.86,4.86,0,0,1,1.66,2.42v.24a.38.38,0,0,1-.38.24.53.53,0,0,1-.31-.17,11.8,11.8,0,0,0-2.76-2.42S170.37,69.31,170.4,69.31Zm-2.24-1c-.52,0-.79,0-.79.35s0,.31.44.31a2.73,2.73,0,0,0,.8-.18c.31,0,.45-.2.41-.27a1.09,1.09,0,0,0-.86-.31Z"/><path class="cls-2" d="M178.89,57.65a4.93,4.93,0,0,0-3.45,4.17v1.62a3.45,3.45,0,0,0,1.76,3.11h.51s0,.24-.48.34h.28l-.24-.38a2.12,2.12,0,0,1-.31-.62,1.32,1.32,0,0,1,.82-1.45,1.72,1.72,0,0,1,.76-.2,1.11,1.11,0,0,1,.76.27,1.42,1.42,0,0,1,.83,1.35,1.84,1.84,0,0,1-.69,1.41,2.27,2.27,0,0,1-1.55.55,2.79,2.79,0,0,1-1.87-.55,5.77,5.77,0,0,1-2.17-4.83,7.9,7.9,0,0,1,2-5.1h-3l-1.72-1.55h8.59l1.55,1.44A7.4,7.4,0,0,0,178.89,57.65Z"/><path class="cls-2" d="M185.37,57.27v3.79a3.68,3.68,0,0,0,1.9-1.34c.66-.76,1-1.11,1.14-1.11a.46.46,0,0,1,.38.18,4.65,4.65,0,0,1,1.86,3.79,4.29,4.29,0,0,1-1.86,3.83,5,5,0,0,1-5.9-.55,9.75,9.75,0,0,1-1.9-3.11,12.87,12.87,0,0,1-.93-3.45,14.16,14.16,0,0,0-.21-2l1.18.59a10.83,10.83,0,0,0,.79,3.45c1,2.38,2.38,3.45,4.21,3.45a3.43,3.43,0,0,0,1.62-.42,2.39,2.39,0,0,0,1.21-1,2.27,2.27,0,0,0,.44-1.17,1.47,1.47,0,0,0-.31-.9,10.37,10.37,0,0,1-1.69,1.41,2.34,2.34,0,0,1-1.44.49,2,2,0,0,1-2-1.73,6.37,6.37,0,0,1,0-1.07v-3h-4.45L178,55.79h13.45l1.62,1.48Zm2.07,12.42a1.37,1.37,0,0,1-1.31.86,1.59,1.59,0,0,1-1.14-.41,1.44,1.44,0,0,1-.41-1A1.56,1.56,0,0,1,185,68a1.51,1.51,0,0,1,1.11-.48,1.41,1.41,0,0,1,1.1.41,1.27,1.27,0,0,1,.41,1A1.7,1.7,0,0,1,187.44,69.69Z"/><path class="cls-2" d="M206.07,57.27V68.76l-1-1.38a6.4,6.4,0,0,0-5.73-4.18L197.69,61a22.83,22.83,0,0,1,3-1.79,28.14,28.14,0,0,1,3.87-1.55v-.38h-7.18l-1.55-1.48h11.83l1.55,1.48Zm-1.55,2.52a19.7,19.7,0,0,0-3.66,1.79,9.25,9.25,0,0,1,3.66,2.83Z"/><path class="cls-2" d="M209.07,56.92a33.08,33.08,0,0,1,0-3.45l.86.69a5.26,5.26,0,0,0,.31,1.18l.28.31h1.65l1.59,1.48h-3.14V68.65l-1.55-1.41V59.17a1.67,1.67,0,0,0-.28-1,1.93,1.93,0,0,0-1.62-.9h-.38l-1.58-1.45a11.15,11.15,0,0,1,2.31,0A2.32,2.32,0,0,1,209.07,56.92Z"/><path class="cls-2" d="M216.62,61.48a2.22,2.22,0,0,1-1.13.24,2.7,2.7,0,0,1-2-.79,2.54,2.54,0,0,1-1-2,2.58,2.58,0,0,1,.83-1.86A2.73,2.73,0,0,1,218,59a2.32,2.32,0,0,1-.45,1.34A2.5,2.5,0,0,1,216.62,61.48ZM218.31,68a49.89,49.89,0,0,0-5-3.45v-3c.82.66,1.79,1.49,2.93,2.49a49.83,49.83,0,0,1,3.79,4.17v1.52ZM216,57.86a2,2,0,0,0-1.21.62,1.65,1.65,0,0,0-.52,1.17c0,.38,0,.59.45.59a2.56,2.56,0,0,0,1-.38c.41-.28.69-.49.76-.69a1.47,1.47,0,0,0,0-.66C216.49,58.06,216.31,57.86,216,57.86Z"/><path class="cls-2" d="M229.08,57.27V68.48L227.46,67v-6a1.08,1.08,0,0,0-.42-.79,1,1,0,0,0-.83-.38.62.62,0,0,0-.55.31,2.64,2.64,0,0,0,0,1.31l-1.14.42a.7.7,0,0,0,0-.76,2.89,2.89,0,0,0-.58-.76,2.09,2.09,0,0,0-1.45-.52,2,2,0,0,0-1.31.45,1.61,1.61,0,0,0-.55,1.17,1.15,1.15,0,0,0,.79,1.17,1.93,1.93,0,0,1,0-.48,1.23,1.23,0,0,1,.45-1,1.53,1.53,0,0,1,1.07-.38,1.42,1.42,0,0,1,1.38,1.07,1.75,1.75,0,0,1,.2,1.21,1.85,1.85,0,0,1-1.89,1.17,3.43,3.43,0,0,1-2.52-.9,3.06,3.06,0,0,1-.93-2.34,3.42,3.42,0,0,1,.69-2.11,2.49,2.49,0,0,1,2-1.06,3.22,3.22,0,0,1,2.24.89V59a2.67,2.67,0,0,1,.65-.73,1.56,1.56,0,0,1,.83-.31,2.11,2.11,0,0,1,1.21.45,5.85,5.85,0,0,0,.38.49V57.27h-8.62l-1.63-1.52h13.35l1.62,1.52Z"/><path class="cls-2" d="M232.28,56.92a33.08,33.08,0,0,1,0-3.45l.87.69a4.7,4.7,0,0,0,.07,1.35l.27.31h1.66l1.58,1.48H233.6V68.82L232,67.27v-8.1a1.66,1.66,0,0,0-.27-1,2,2,0,0,0-1.62-.9h-.38l-1.59-1.45a11.15,11.15,0,0,1,2.31,0A2.31,2.31,0,0,1,232.28,56.92Z"/><path class="cls-2" d="M243.56,57.27V68.38l-.82-.76c-.73-1.28-1.14-2-1.21-2.07a5.47,5.47,0,0,0-1.83-1.62,6.84,6.84,0,0,0-3-.83L235,60.93a25.93,25.93,0,0,1,6.9-3.45v-.35H235l-1.59-1.48h11.35l1.59,1.48Zm-4.51,9.93a1.43,1.43,0,0,1-1-.41,1.27,1.27,0,0,1-.41-.93A1.23,1.23,0,0,1,238,65a1.39,1.39,0,0,1,.93-.38,1.44,1.44,0,0,1,.89.31,1.28,1.28,0,0,1,.52.73,1.25,1.25,0,0,1-.24,1.1,1.3,1.3,0,0,1-1.1.48ZM242,59.65a14.44,14.44,0,0,0-3.69,1.83A8.41,8.41,0,0,1,242,64.41Z"/><path class="cls-2" d="M255,57.75a1.15,1.15,0,0,0-.72-.48h-3.45l-1.66-1.48H261l1.55,1.48h-6.28l.28.38a2.31,2.31,0,0,1,1,.24,3.46,3.46,0,0,1,2.28,2.48,1.94,1.94,0,0,1,0,.59A2.88,2.88,0,0,1,258,63.65l-1.24.59a6.55,6.55,0,0,1,1,.48,11.34,11.34,0,0,1,2,1.48l1.8,1.8.72,2.45-1.07-1.14a16.56,16.56,0,0,0-4.07-2.87,14.13,14.13,0,0,0-4.38-1.55l-1.59-3.65a7.32,7.32,0,0,0,3.9,1.34,4.39,4.39,0,0,0,3.07-1.21.9.9,0,0,0,.31-.69,1.07,1.07,0,0,0-.55-.93,2.19,2.19,0,0,0-1.24-.38h-.28a2.5,2.5,0,0,1-1.07,1.56,1.91,1.91,0,0,1-1.31.51,1.4,1.4,0,0,1-1.55-1.17,1.66,1.66,0,0,1,.52-1.41,2.54,2.54,0,0,1,.93-.69Z"/><path class="cls-2" d="M262.67,56.92a33.08,33.08,0,0,1,0-3.45l.87.69a4.37,4.37,0,0,0,.31,1.18l.27.31h1.66l1.58,1.48h-3.1V68.65l-1.55-1.55V59.17a1.74,1.74,0,0,0-.28-1,1.93,1.93,0,0,0-1.62-.9h-.38l-1.59-1.45a11.24,11.24,0,0,1,2.32,0A2.3,2.3,0,0,1,262.67,56.92Z"/><path class="cls-2" d="M268.09,52.89h1.07a6.16,6.16,0,0,1,3.28.45A2.62,2.62,0,0,1,274,55.82h1.14l1.55,1.55h-8.49v6.9c0,.38.21.55.66.55a2.85,2.85,0,0,0,1.79-.93,3.92,3.92,0,0,0,1.24-1.76h0a1.72,1.72,0,0,1-1.17-.38,1.22,1.22,0,0,1-.48-1,1.48,1.48,0,0,1,0-.42A1.62,1.62,0,0,1,272,59.06a1.86,1.86,0,0,1,1.55.73,2.26,2.26,0,0,1,.56,1.65,4.21,4.21,0,0,1-1.25,3.07c-1.44,1.42-2.58,2.14-3.44,2.14a2.56,2.56,0,0,1-2.63-2,8.45,8.45,0,0,1,0-1.59V57.27h-1.65l-1.31-1.48h8.76v-.38a1.49,1.49,0,0,0-1.42-.73h-3a4.86,4.86,0,0,1-2.48-.62,2.21,2.21,0,0,1-1.25-2,1.72,1.72,0,0,1,.38-1.07.69.69,0,0,1,.62-.31.45.45,0,0,1,.28,0,2.53,2.53,0,0,1,0,.55.79.79,0,0,0-.28.49c0,.41.31.72.9.86A8.76,8.76,0,0,0,268.09,52.89Z"/><path class="cls-2" d="M289.85,57.27V68.76l-1-1.38a6.38,6.38,0,0,0-5.72-4.18L281.51,61a22.83,22.83,0,0,1,3-1.79,29,29,0,0,1,3.94-1.55v-.38h-7.28l-1.55-1.48h11.83L293,57.27Zm-1.55,2.52a19.92,19.92,0,0,0-3.65,1.79,9.15,9.15,0,0,1,3.65,2.83Z"/><path class="cls-2" d="M293,56.92a33.08,33.08,0,0,1,0-3.45l.87.69a6.83,6.83,0,0,0,.31,1.18l.27.31h1.66l1.59,1.48h-3.14V68.65L293,67.1V59.17a1.66,1.66,0,0,0-.27-1,2,2,0,0,0-1.62-.9h-.38l-1.59-1.45a11.15,11.15,0,0,1,2.31,0A2.21,2.21,0,0,1,293,56.92Z"/><path class="cls-2" d="M303.31,60.17a1.93,1.93,0,0,1,.72.58,4.32,4.32,0,0,1,1,3.25,3.86,3.86,0,0,1-1.21,1.69,3.58,3.58,0,0,1-2,.62,4.47,4.47,0,0,1-3.45-1.87,6.87,6.87,0,0,1-1.21-2.34,15,15,0,0,1-.45-4.52,5,5,0,0,1,1.07.62,7.44,7.44,0,0,0,0,2,14.76,14.76,0,0,0,.52,1.59,4.47,4.47,0,0,0,1.28,1.58,2.63,2.63,0,0,0,1.89.76,7.06,7.06,0,0,0,1.45-.31c.62-.24.93-.55.93-1a1.14,1.14,0,0,0,0-.45.31.31,0,0,0-.27-.21h-.38a5.07,5.07,0,0,1-1.86.48,2.74,2.74,0,0,1-2.76-2.27,2,2,0,0,1,0-.69,3.42,3.42,0,0,1,1.07-2.21l.24-.28h-4.14l-1.59-1.48h15.21L311,57.23h-7.52l-.63.31h0a2.34,2.34,0,0,0,1,.63,4.21,4.21,0,0,0,1.45.2,11.3,11.3,0,0,0,2.14-.51l2,1.86a6.44,6.44,0,0,0-1.24,1.65,4,4,0,0,0-.62,1.9,8.55,8.55,0,0,0,0,1.24,7.55,7.55,0,0,0,.9,3.11s-.24.2-.35.2a2.12,2.12,0,0,1-.69-.17c-.34,0-.55,0-.62-.27l-.51-2.18a8.71,8.71,0,0,1-.35-2.21,8,8,0,0,1,.62-2.93,10.39,10.39,0,0,1-2.28-.34,3.84,3.84,0,0,1-2-.76l-.62-.73c-.24,0-.55.35-.93,1a2.87,2.87,0,0,0-.58,1.28c0,.34.2.51.62.51a6.51,6.51,0,0,0,1.79-.69l.62-.24a.43.43,0,0,1,.35,0Z"/><path class="cls-2" d="M311,56.92V53.47l.89.69a5.26,5.26,0,0,0,.31,1.18l.24.31h1.69l1.56,1.48h-3.11V68.65L311,67.1V59.17a1.47,1.47,0,0,0-.28-1,1.91,1.91,0,0,0-1.62-.9h-.34l-1.59-1.45a11.15,11.15,0,0,1,2.31,0A2.23,2.23,0,0,1,311,56.92Z"/><path class="cls-2" d="M322.21,57.27V68.38l-.86-.76c-.73-1.28-1.14-2-1.21-2.07a5.77,5.77,0,0,0-1.79-1.62,6.75,6.75,0,0,0-2.87-.83l-1.69-2.17a26.08,26.08,0,0,1,6.9-3.45v-.35h-6.9l-1.62-1.48h11.35l1.62,1.48Zm-4.55,9.93a1.48,1.48,0,0,1-1.45-1.34,1.18,1.18,0,0,1,.41-.9,1.3,1.3,0,0,1,.93-.38,1.38,1.38,0,0,1,.87.31,1.31,1.31,0,0,1,.51.73,1.25,1.25,0,0,1-.24,1.1A1.22,1.22,0,0,1,317.66,67.2Zm2.93-7.55a15,15,0,0,0-3.69,1.83,8.16,8.16,0,0,1,3.69,2.93Z"/><path class="cls-3" d="M135.19,11.17l-.18-4a15.36,15.36,0,0,0-4.16-2,15.93,15.93,0,0,0-4.55-.64,13,13,0,0,0-9.65,3.66Q113,11.91,113,18a15.7,15.7,0,0,0,1.85,7.68,13.56,13.56,0,0,0,5.23,5.34,14.06,14.06,0,0,0,7.16,2,25.68,25.68,0,0,0,5.92-.69,12.24,12.24,0,0,0,4.4-2.14l.47.44c-.32.69-.61,1.38-.88,2.08a26.16,26.16,0,0,1-5.25,1.95,22,22,0,0,1-5.33.66,21,21,0,0,1-9.65-2.12,15.33,15.33,0,0,1-6.39-5.86,16.15,16.15,0,0,1-2.24-8.45,15.91,15.91,0,0,1,2.26-8.42,15.1,15.1,0,0,1,6.37-5.76,22.67,22.67,0,0,1,10.12-2,31.92,31.92,0,0,1,7.37,1c1.4.33,2.54.58,3.41.74a20,20,0,0,0-1.16,6.74Z"/><path class="cls-3" d="M147.35,18.36a18.16,18.16,0,0,0,2-2.24,8.44,8.44,0,0,1,2.33-2.23,4.55,4.55,0,0,1,2.26-.6,4.87,4.87,0,0,1,1.88.29.45.45,0,0,1,.31.42l0,.23a30.38,30.38,0,0,0-.41,5.06h-1a3.67,3.67,0,0,0-1.21-1.6,2.91,2.91,0,0,0-1.68-.47,3.87,3.87,0,0,0-2.44.89,4.31,4.31,0,0,0-1.5,2.5,33.53,33.53,0,0,0-.38,6.3,44.85,44.85,0,0,0,.25,5.22c.06.52.21.85.44,1a5.34,5.34,0,0,0,2.5.47H152v1.29q-3.41-.15-6.47-.15t-5.87.15V33.58l2.14-.18a2.34,2.34,0,0,0,1.44-.42,4.71,4.71,0,0,0,.39-2.17c.11-2.14.16-4.69.16-7.63,0-3.59-.14-5.69-.43-6.32q-.29-.6-1.83-.6h-1.87V15a34.23,34.23,0,0,0,3.86-.63,15,15,0,0,0,3-1,1.27,1.27,0,0,1,.52-.15.37.37,0,0,1,.33.13,1.29,1.29,0,0,1,.09.61Z"/><path class="cls-3" d="M158.56,24.16A10.92,10.92,0,0,1,160,18.59a10,10,0,0,1,4-3.89,12,12,0,0,1,5.86-1.41,10.39,10.39,0,0,1,7.61,2.81,10,10,0,0,1,2.86,7.5,11.1,11.1,0,0,1-3.73,8.8,11.65,11.65,0,0,1-8,2.92,9.49,9.49,0,0,1-7.26-3A11.47,11.47,0,0,1,158.56,24.16Zm4.19-1.58a15.5,15.5,0,0,0,1.89,7.88,6,6,0,0,0,5.43,3.28,5.36,5.36,0,0,0,4.37-2.06q1.67-2.05,1.66-6.24a15.91,15.91,0,0,0-1-5.84,7.85,7.85,0,0,0-2.59-3.6,6.11,6.11,0,0,0-3.59-1.12,5.78,5.78,0,0,0-3.18.89,5.26,5.26,0,0,0-2.09,2.39A10.67,10.67,0,0,0,162.75,22.58Z"/><path class="cls-3" d="M190.56,17.8,193.68,15a6.28,6.28,0,0,1,2-1.32,10.15,10.15,0,0,1,3.08-.42,8.68,8.68,0,0,1,6.42,2.46,8.58,8.58,0,0,1,2.45,6.33,13.45,13.45,0,0,1-.56,3.83A10.94,10.94,0,0,1,205.72,29a8.73,8.73,0,0,1-1.8,2c-.23.18-1.13.77-2.72,1.76l-.9.65A11.9,11.9,0,0,1,197.57,35a6.94,6.94,0,0,1-2.37.37A8.87,8.87,0,0,1,193,35a15.68,15.68,0,0,1-2.43-.88v3.14q0,4.84.14,6.83a1.69,1.69,0,0,0,.56,1.27,3.63,3.63,0,0,0,2.07.39h1.21V47q-4.23-.17-6.2-.16c-1.44,0-3.28,0-5.52.16V45.77h1.63c1.14,0,1.82-.25,2-.74s.31-3.11.31-7.86V23.47c0-2.38-.06-4.22-.18-5.51a1.89,1.89,0,0,0-.43-1.24,2.79,2.79,0,0,0-1.62-.3h-1.74V15a32.06,32.06,0,0,0,6.11-1.27l1.37-.54c.23,0,.35.21.35.63l-.06,2.36Zm0,12.27a9.09,9.09,0,0,0,2.86,2.28,7.07,7.07,0,0,0,3.07.67,6.16,6.16,0,0,0,5.39-2.66,10.65,10.65,0,0,0,1.88-6.31,9.52,9.52,0,0,0-.86-4.21,6.4,6.4,0,0,0-2.51-2.74,6.71,6.71,0,0,0-6.16-.46A7.11,7.11,0,0,0,192,18.12a4.86,4.86,0,0,0-1.23,1.75,14.69,14.69,0,0,0-.2,3.2Z"/><path class="cls-3" d="M212.77,28V29.5a4.6,4.6,0,0,0,.31,2.17,5.61,5.61,0,0,0,2.27,1.39,9.24,9.24,0,0,0,3.47.68,5.61,5.61,0,0,0,3.75-1.24,3.78,3.78,0,0,0,1.45-3,2.93,2.93,0,0,0-.85-2.19A6.63,6.63,0,0,0,219.94,26a31,31,0,0,1-5.87-1.57,4.88,4.88,0,0,1-2.15-1.79,4.94,4.94,0,0,1-.71-2.7,6.07,6.07,0,0,1,2.16-4.83,9.12,9.12,0,0,1,6.11-1.85,16.66,16.66,0,0,1,6.24,1.25c-.13,1-.23,2.71-.31,5.09h-1.34a5.89,5.89,0,0,0-.43-2.59,4.43,4.43,0,0,0-1.87-1.5,6.51,6.51,0,0,0-2.89-.66,4.83,4.83,0,0,0-3.24,1,3.32,3.32,0,0,0-1.22,2.61,2.68,2.68,0,0,0,1,2.25q1,.8,5.31,1.66a18.13,18.13,0,0,1,4.25,1.2,4.23,4.23,0,0,1,1.65,1.7,5.41,5.41,0,0,1,.62,2.61,6.61,6.61,0,0,1-2.57,5.19,10.3,10.3,0,0,1-6.89,2.19,25.66,25.66,0,0,1-6.16-.86c-.4-.1-.6-.26-.6-.47l.06-.31a8.13,8.13,0,0,0,.16-1.18c.13-1.45.2-2.58.2-3.38l0-1.08Z"/><path class="cls-3" d="M250,19.09v6.24c0,1.07,0,2.33.11,3.78.09,2,.16,3.15.22,3.36a1.3,1.3,0,0,0,.65.66,3.57,3.57,0,0,0,1.81.34h1.51v1.4c-1.93-.1-3.8-.15-5.6-.15s-4.23.05-7.47.15v-1.4h1.38c1.56,0,2.48-.27,2.77-.79s.42-2.95.42-7.27V12q0-5.85-.43-6.64c-.29-.53-1.12-.79-2.49-.79h-1.65V3.11q3.67.17,6.85.16t6.22-.16V4.52h-.95a5.86,5.86,0,0,0-2.57.33,1.51,1.51,0,0,0-.6,1.1,57.11,57.11,0,0,0-.18,6V17q4,.15,10.11.15,5.19,0,8.46-.15V12.66a63.69,63.69,0,0,0-.27-6.42,1.83,1.83,0,0,0-.6-1.32,3.71,3.71,0,0,0-2.1-.4H264V3.11q3.42.17,6.47.16,3.31,0,6.88-.16V4.52h-1.7a4.1,4.1,0,0,0-2.2.38,2,2,0,0,0-.58,1.39c-.06.68-.1,2.81-.1,6.4V25q0,6.86.39,7.65c.26.52,1.08.79,2.45.79h1.74v1.4c-2.05-.1-4.18-.15-6.36-.15q-3.75,0-7,.15v-1.4h1.54a4,4,0,0,0,2.19-.39,2.06,2.06,0,0,0,.6-1.47,65.88,65.88,0,0,0,.25-6.7V19.09q-3.15-.15-8-.15Q253.53,18.94,250,19.09Z"/><path class="cls-3" d="M281.41,19.36l0-1.49,0-1.54,2.43-1.39a14,14,0,0,1,2.89-1.29,9.41,9.41,0,0,1,2.64-.36,8.22,8.22,0,0,1,5,1.38,5.41,5.41,0,0,1,2.26,3.53,72.7,72.7,0,0,1,.34,8,46.32,46.32,0,0,0,.27,6.63,1,1,0,0,0,1.11.62h1.75v1.47c-1.7-.1-2.89-.15-3.55-.15-.84,0-1.95.05-3.35.15l0-2c0-.64,0-1.29,0-1.94l-4.62,3.52a4.37,4.37,0,0,1-1.23.66,5.67,5.67,0,0,1-1.67.19,6.24,6.24,0,0,1-4.4-1.41,5,5,0,0,1-1.52-3.8,7.14,7.14,0,0,1,1.08-3.94,6.39,6.39,0,0,1,3.08-2.48,61.68,61.68,0,0,1,9.28-2.1,6.57,6.57,0,0,0-1.25-4.24,5.42,5.42,0,0,0-4.33-1.76,7.58,7.58,0,0,0-2,.26,6.24,6.24,0,0,0-1.74.79c-.43,1.06-.83,2.08-1.18,3.06Zm11.76,3.55q-6.21,1.34-7.88,2.51A4.08,4.08,0,0,0,283.61,29a3.63,3.63,0,0,0,1,2.64,3.31,3.31,0,0,0,2.48,1,6.09,6.09,0,0,0,3.21-.93A10.78,10.78,0,0,0,293.17,29L293.12,24Z"/><path class="cls-3" d="M304.26,19.36l0-1.49,0-1.54,2.43-1.39a14.49,14.49,0,0,1,2.89-1.29,9.48,9.48,0,0,1,2.65-.36,8.24,8.24,0,0,1,5,1.38,5.45,5.45,0,0,1,2.26,3.53,72.7,72.7,0,0,1,.34,8,47.27,47.27,0,0,0,.26,6.63c.15.41.52.62,1.12.62h1.74v1.47c-1.7-.1-2.88-.15-3.55-.15-.83,0-1.95.05-3.35.15l0-2c0-.64,0-1.29,0-1.94l-4.62,3.52a4.19,4.19,0,0,1-1.22.66,5.74,5.74,0,0,1-1.68.19,6.25,6.25,0,0,1-4.4-1.41,5,5,0,0,1-1.51-3.8,7.14,7.14,0,0,1,1.08-3.94,6.35,6.35,0,0,1,3.08-2.48,61.1,61.1,0,0,1,9.27-2.1,6.51,6.51,0,0,0-1.25-4.24,5.41,5.41,0,0,0-4.33-1.76,7.55,7.55,0,0,0-2,.26,6.44,6.44,0,0,0-1.75.79c-.43,1.06-.82,2.08-1.18,3.06ZM316,22.91c-4.13.89-6.76,1.73-7.87,2.51A4.08,4.08,0,0,0,306.47,29a3.63,3.63,0,0,0,1,2.64,3.31,3.31,0,0,0,2.48,1,6.08,6.08,0,0,0,3.2-.93A10.63,10.63,0,0,0,316,29L316,24Z"/><path class="cls-3" d="M332.23,17.33v8.76a25.53,25.53,0,0,0,.22,4.38,2.61,2.61,0,0,0,.9,1.5,2.71,2.71,0,0,0,1.73.54,3.32,3.32,0,0,0,1.27-.26,4.8,4.8,0,0,0,1.21-.77l.65.78L336,34.81a11.13,11.13,0,0,1-1.39.38,6.59,6.59,0,0,1-1.3.13,6.1,6.1,0,0,1-2.8-.59,3.9,3.9,0,0,1-1.66-1.54,6.26,6.26,0,0,1-.51-2.87l.09-4.31V17.53c-1.15,0-2.33,0-3.55.16v-1c1.28-.49,2.46-1,3.55-1.54q0-3.19-.18-6.92A36.59,36.59,0,0,0,332,6.51l.59.44q-.18,1.74-.38,8.24c1.81,0,3.29,0,4.44-.07l1.78-.09-.24,2.3-.92,0-4.28,0Z"/></svg>